P3
8 1
255
182 63 43 32 29 15 98 53 15 193 111 137 194 205 170 66 37 65 194 155 47 100 126 116 

